HIERARCHY
ROOT Hips
{
    OFFSET 0.000000 0.000000 0.000000
    CHANNELS 6 Xposition Yposition Zposition Zrotation Xrotation Yrotation
        JOINT Chest
        {
            OFFSET -0.000000 31.804140 -0.000000
            CHANNELS 3 Zrotation Xrotation Yrotation
            JOINT Neck
            {
                OFFSET -0.000000 23.903318 0.000000
                CHANNELS 3 Zrotation Xrotation Yrotation
                JOINT Head
                {
                    OFFSET -0.000000 10.511110 0.000000
                    CHANNELS 3 Zrotation Xrotation Yrotation
                    End Site
                    {
                        OFFSET -0.000000 16.244448 0.000000
                    }
                }
            }
            JOINT LeftCollar
            {
                OFFSET -0.000000 23.903318 0.000000
                CHANNELS 3 Zrotation Xrotation Yrotation
                JOINT LeftShoulder
                {
                    OFFSET 20.500000 -0.000000 0.000000
                    CHANNELS 3 Zrotation Xrotation Yrotation
                    JOINT LeftElbow
                    {
                        OFFSET 20.922438 0.000000 0.000000
                        CHANNELS 3 Zrotation Xrotation Yrotation
                        JOINT LeftWrist
                        {
                            OFFSET 26.373112 0.000000 0.000000
                            CHANNELS 3 Zrotation Xrotation Yrotation
                            End Site
                            {
                                OFFSET 0.000000 -14.333333 0.000000
                            }
                        }
                    }
                }
            }
            JOINT RightCollar
            {
                OFFSET -0.000000 23.903318 0.000000
                CHANNELS 3 Zrotation Xrotation Yrotation
                JOINT RightShoulder
                {
                    OFFSET -20.500000 0.000000 0.000000
                    CHANNELS 3 Zrotation Xrotation Yrotation
                    JOINT RightElbow
                    {
                        OFFSET -20.922438 0.000000 0.000000
                        CHANNELS 3 Zrotation Xrotation Yrotation
                        JOINT RightWrist
                        {
                            OFFSET -26.373112 0.000000 0.000000
                            CHANNELS 3 Zrotation Xrotation Yrotation
                            End Site
                            {
                                OFFSET -0.000000 -14.333333 0.000000
                            }
                        }
                    }
                }
            }
        }
    JOINT LeftHip
    {
        OFFSET 11.466667 0.000000 0.000000
        CHANNELS 3 Zrotation Xrotation Yrotation
        JOINT LeftKnee
        {
            OFFSET -0.000000 -37.458855 0.000000
            CHANNELS 3 Zrotation Xrotation Yrotation
            JOINT LeftAnkle
            {
                OFFSET -0.000000 -39.235966 0.000000
                CHANNELS 3 Zrotation Xrotation Yrotation
                End Site
                {
                    OFFSET -0.000000 -4.777778 16.244448
                }
            }
        }
    }
    JOINT RightHip
    {
        OFFSET -11.466667 0.000000 0.000000
        CHANNELS 3 Zrotation Xrotation Yrotation
        JOINT RightKnee
        {
            OFFSET -0.000000 -37.458855 0.000000
            CHANNELS 3 Zrotation Xrotation Yrotation
            JOINT RightAnkle
            {
                OFFSET -0.000000 -39.235966 0.000000
                CHANNELS 3 Zrotation Xrotation Yrotation
                End Site
                {
                    OFFSET -0.000000 -4.777778 16.244448
                }
            }
        }
    }
}
MOTION
Frames:    5
Frame Time:    0.010000
72.891045    81.867149    -71.025421    -4.313141    -0.075753    -54.654572    3.241867    19.086130    -0.874843    -13.217175    8.437445    5.874609    5.241853    -23.037600    6.291901    -9.366644    0.115390    -0.990258    -62.557411    14.333172    -15.617447    -16.288931    14.272798    -82.252747    124.305199    -28.154776    -6.494710    18.122541    1.038446    6.718714    39.469059    48.152309    23.609020    3.385227    2.158949    65.867126    -157.983368    -30.129642    5.720652    27.685686    -8.214787    3.887770    -23.394878    35.104656    21.516645    -7.138865    -7.801269    11.044145    -16.837780    -12.660135    -11.458401    9.349794    44.788025    -22.151911    14.683720    -9.794273    -4.005906    
72.894058    81.541374    -71.108055    -4.440837    -0.184428    -54.561974    3.104391    18.936157    -0.796726    -12.894189    9.033676    5.708337    5.780383    -22.320353    5.817135    -9.610763    0.092222    -1.269159    -61.800095    14.398636    -16.008068    -16.672455    14.637957    -81.282738    125.739090    -28.779589    -5.571196    18.902042    1.095085    6.620493    38.930618    47.520142    23.496311    3.764238    2.579463    65.368591    -157.711716    -30.393473    6.129016    27.749357    -8.789228    3.770770    -23.517216    36.248470    21.511768    -7.336378    -8.263762    11.317185    -16.791559    -13.054830    -11.214552    9.628252    45.624809    -23.556545    14.542276    -9.905816    -3.573554    
72.821465    81.509911    -71.119133    -4.469719    -0.262382    -54.550819    2.990792    19.281267    -0.792551    -13.015553    8.594300    5.709544    6.099766    -22.396278    5.934690    -9.544739    0.125118    -1.116636    -61.740910    14.574514    -16.416307    -16.679781    14.390376    -81.423050    125.667908    -28.570644    -5.680748    18.855877    1.134118    7.008880    39.719967    46.459244    22.653082    4.285110    3.036521    65.516930    -157.588928    -30.984339    6.617543    27.823200    -9.155545    3.178538    -23.910559    36.701050    22.540075    -7.126595    -7.701030    10.866842    -16.798754    -13.533633    -11.535971    9.091291    46.510868    -22.568794    15.113935    -9.705153    -4.104657    
72.790970    81.483604    -71.144417    -4.541916    -0.337179    -54.525730    2.973804    19.454573    -0.733283    -13.073876    8.538562    5.688720    6.207358    -22.557577    5.945402    -9.620219    0.106792    -1.098440    -61.587006    14.624108    -16.680918    -16.724596    14.381628    -81.301414    126.106636    -28.613159    -5.389394    18.933691    1.178322    7.170919    39.792572    45.944725    22.417341    4.587401    3.163353    65.474785    -157.251846    -31.385799    7.001724    27.838581    -9.393238    2.930340    -24.026638    37.148979    22.852114    -7.321785    -7.576286    10.810205    -16.776726    -13.771487    -11.573608    8.973802    47.027809    -22.523300    15.222486    -9.617450    -4.286231    
72.752220    81.491455    -71.165024    -4.634052    -0.426909    -54.504215    2.973518    19.674652    -0.660631    -13.132371    8.498889    5.649010    6.295335    -22.769035    5.934004    -9.692295    0.080211    -1.128566    -61.492779    14.649649    -16.906427    -16.770487    14.410203    -81.151550    126.597656    -28.632818    -5.051952    18.975101    1.203520    7.299368    39.842323    45.495522    22.209595    4.798481    3.241014    65.467751    -156.915543    -31.695816    7.344173    27.849445    -9.591038    2.685942    -24.113543    37.574192    23.121317    -7.600229    -7.388231    10.752045    -16.758577    -13.978724    -11.612761    8.855035    47.529697    -22.417786    15.287966    -9.476910    -4.510519    
